# xmcd CD database file
#
# Track frame offsets:
#	183
#	13925
#	27683
#	41103
#	56605
#	70193
#	81615
#	95250
#	109125
#	122058
#	135188
#	148160
#	160573
#	174358
#	187558
#	198868
#	210963
#	224293
#	236840
#	248443
#	261085
#	275283
#
# Disc length: 3843 seconds
#
# Revision: 0
# Processed by: cddbd v1.5.2PL0 Copyright (c) Steve Scherf et al.
# Submitted via: CDex 1.51
#
DISCID=310f0116
DTITLE=Benny Carter - Benny Carter in Europe
DYEAR=1937
DGENRE=Jazz
TTITLE0=Black Bottom
TTITLE1=Mighty Like the Blues
TTITLE2=Pardon Me, Pretty Baby
TTITLE3=Just a Mood
TTITLE4=Royal Garden Blues
TTITLE5=Rambler's Rhythm
TTITLE6=Lazy Afternoon
TTITLE7=I Ain't Got Nobody
TTITLE8=Waltzin' the Blues
TTITLE9=When Day is Done
TTITLE10=Bugle Call Rag
TTITLE11=There'll Be Some Changes Made
TTITLE12=If Only I Cound Rest Your Mind
TTITLE13=Gin and Jive
TTITLE14=New Street Swing
TTITLE15=I'll Never Give In
TTITLE16=Skip It
TTITLE17=Somebody Loves Me
TTITLE18=Blues in Heart
TTITLE19=My Buddy
TTITLE20=Nightfall
TTITLE21=I've Got Two Lips
EXTD=YEAR: 1937
EXTT0=
EXTT1=
EXTT2=
EXTT3=
EXTT4=
EXTT5=
EXTT6=
EXTT7=
EXTT8=
EXTT9=
EXTT10=
EXTT11=
EXTT12=
EXTT13=
EXTT14=
EXTT15=
EXTT16=
EXTT17=
EXTT18=
EXTT19=
EXTT20=
EXTT21=
PLAYORDER=
